<svg id="Capa_1" enable-background="new 0 0 512 512" height="512" viewBox="0 0 512 512" width="512" xmlns="http://www.w3.org/2000/svg"><g><path d="m361 300h-105-105l-15 21v164.841l15 26.159h105 105l15-26.869v-155.605z" fill="#443d66"/><path d="m376 485.131v-155.605l-15-29.526h-105v212h105z" fill="#382e4d"/><g><path d="m376 300h-15v212h90v-137c0-41.422-33.578-75-75-75z" fill="#251e33"/><path d="m136 300-69 90-6 90v32h90v-212z" fill="#382e4d"/></g><path d="m256 0c-82.842 0-150 67.158-150 150v156.332c-26.468 11.581-45 37.928-45 68.668v105c0-49.706 40.294-90 90-90h105c82.842 0 150-67.158 150-150v-90c0-82.842-67.158-150-150-150z" fill="#4d4d80"/><path d="m406 240v-90c0-82.842-67.158-150-150-150v390c82.842 0 150-67.158 150-150z" fill="#443d66"/><path d="m316 105h-60-60c-16.553 0-30 13.462-30 30v15c0 75.703 39.521 135 90 135s90-59.297 90-135v-15c0-16.538-13.447-30-30-30z" fill="#ffd9b3"/><path d="m346 150v-15c0-16.538-13.447-30-30-30h-60v180c50.479 0 90-59.297 90-135z" fill="#fb9"/></g></svg>